<mxfile host="app.diagrams.net" modified="2023-11-24T20:07:52.560Z" agent="Mozilla/5.0 (Windows NT 10.0; Win64; x64) AppleWebKit/537.36 (KHTML, like Gecko) Chrome/119.0.0.0 Safari/537.36" etag="Y1Nyoyd5ij0EmSo_mS28" version="22.1.4" type="device">
  <diagram name="Strona-1" id="5OiNI5KlHXIDe6u1By4Q">
    <mxGraphModel dx="683" dy="361" grid="1" gridSize="10" guides="1" tooltips="1" connect="1" arrows="1" fold="1" page="1" pageScale="1" pageWidth="827" pageHeight="1169" math="0" shadow="0">
      <root>
        <mxCell id="0" />
        <mxCell id="1" parent="0" />
        <mxCell id="sMgzf8moK3KFQ7kUe0p--1" value="Użytkownik" style="whiteSpace=wrap;html=1;aspect=fixed;fontSize=16;" parent="1" vertex="1">
          <mxGeometry x="10" y="95" width="90" height="90" as="geometry" />
        </mxCell>
        <mxCell id="sMgzf8moK3KFQ7kUe0p--3" value="0.System strony z ogłoszeniami" style="ellipse;whiteSpace=wrap;html=1;aspect=fixed;fontSize=16;" parent="1" vertex="1">
          <mxGeometry x="400" y="80" width="120" height="120" as="geometry" />
        </mxCell>
        <mxCell id="sMgzf8moK3KFQ7kUe0p--5" value="" style="endArrow=classic;html=1;rounded=0;fontSize=12;startSize=8;endSize=8;entryX=0;entryY=0;entryDx=0;entryDy=0;exitX=1;exitY=0;exitDx=0;exitDy=0;" parent="1" source="sMgzf8moK3KFQ7kUe0p--1" edge="1" target="sMgzf8moK3KFQ7kUe0p--3">
          <mxGeometry width="50" height="50" relative="1" as="geometry">
            <mxPoint x="100" y="90" as="sourcePoint" />
            <mxPoint x="420" y="90" as="targetPoint" />
            <Array as="points">
              <mxPoint x="110" y="80" />
              <mxPoint x="400" y="80" />
            </Array>
          </mxGeometry>
        </mxCell>
        <mxCell id="2PJzJL51iFRu0PdKuJAb-2" value="Rejestracja" style="edgeLabel;html=1;align=center;verticalAlign=middle;resizable=0;points=[];" vertex="1" connectable="0" parent="sMgzf8moK3KFQ7kUe0p--5">
          <mxGeometry x="-0.3246" relative="1" as="geometry">
            <mxPoint x="67" y="-10" as="offset" />
          </mxGeometry>
        </mxCell>
        <mxCell id="2PJzJL51iFRu0PdKuJAb-3" value="" style="endArrow=none;html=1;rounded=0;startArrow=classic;startFill=1;endFill=0;" edge="1" parent="1" target="sMgzf8moK3KFQ7kUe0p--3">
          <mxGeometry width="50" height="50" relative="1" as="geometry">
            <mxPoint x="100" y="144" as="sourcePoint" />
            <mxPoint x="230" y="100" as="targetPoint" />
            <Array as="points">
              <mxPoint x="120" y="150" />
              <mxPoint x="380" y="150" />
            </Array>
          </mxGeometry>
        </mxCell>
        <mxCell id="2PJzJL51iFRu0PdKuJAb-4" value="Logowanie" style="edgeLabel;html=1;align=center;verticalAlign=middle;resizable=0;points=[];" vertex="1" connectable="0" parent="2PJzJL51iFRu0PdKuJAb-3">
          <mxGeometry x="0.0451" relative="1" as="geometry">
            <mxPoint x="-2" y="-10" as="offset" />
          </mxGeometry>
        </mxCell>
        <mxCell id="2PJzJL51iFRu0PdKuJAb-5" value="" style="endArrow=classic;html=1;rounded=0;entryX=0.07;entryY=0.289;entryDx=0;entryDy=0;exitX=1.009;exitY=0.081;exitDx=0;exitDy=0;exitPerimeter=0;entryPerimeter=0;" edge="1" parent="1" source="sMgzf8moK3KFQ7kUe0p--1" target="sMgzf8moK3KFQ7kUe0p--3">
          <mxGeometry width="50" height="50" relative="1" as="geometry">
            <mxPoint x="100" y="130" as="sourcePoint" />
            <mxPoint x="230" y="100" as="targetPoint" />
            <Array as="points">
              <mxPoint x="390" y="100" />
            </Array>
          </mxGeometry>
        </mxCell>
        <mxCell id="2PJzJL51iFRu0PdKuJAb-7" value="Dodanie ogłoszenia" style="edgeLabel;html=1;align=center;verticalAlign=middle;resizable=0;points=[];" vertex="1" connectable="0" parent="2PJzJL51iFRu0PdKuJAb-5">
          <mxGeometry x="0.1999" relative="1" as="geometry">
            <mxPoint x="-15" y="-10" as="offset" />
          </mxGeometry>
        </mxCell>
        <mxCell id="2PJzJL51iFRu0PdKuJAb-8" value="" style="endArrow=classic;html=1;rounded=0;entryX=1;entryY=1;entryDx=0;entryDy=0;exitX=0.372;exitY=0.992;exitDx=0;exitDy=0;exitPerimeter=0;" edge="1" parent="1" source="sMgzf8moK3KFQ7kUe0p--3" target="sMgzf8moK3KFQ7kUe0p--1">
          <mxGeometry width="50" height="50" relative="1" as="geometry">
            <mxPoint x="180" y="150" as="sourcePoint" />
            <mxPoint x="230" y="100" as="targetPoint" />
            <Array as="points">
              <mxPoint x="430" y="210" />
              <mxPoint x="420" y="210" />
              <mxPoint x="100" y="210" />
            </Array>
          </mxGeometry>
        </mxCell>
        <mxCell id="2PJzJL51iFRu0PdKuJAb-9" value="Wyświetlenie dostępnych ogłoszeń" style="edgeLabel;html=1;align=center;verticalAlign=middle;resizable=0;points=[];" vertex="1" connectable="0" parent="2PJzJL51iFRu0PdKuJAb-8">
          <mxGeometry x="-0.1099" y="-1" relative="1" as="geometry">
            <mxPoint x="-21" y="-9" as="offset" />
          </mxGeometry>
        </mxCell>
        <mxCell id="2PJzJL51iFRu0PdKuJAb-10" value="" style="endArrow=classic;html=1;rounded=0;entryX=0.007;entryY=0.464;entryDx=0;entryDy=0;entryPerimeter=0;exitX=1.004;exitY=0.293;exitDx=0;exitDy=0;exitPerimeter=0;" edge="1" parent="1" source="sMgzf8moK3KFQ7kUe0p--1" target="sMgzf8moK3KFQ7kUe0p--3">
          <mxGeometry width="50" height="50" relative="1" as="geometry">
            <mxPoint x="100" y="140" as="sourcePoint" />
            <mxPoint x="230" y="100" as="targetPoint" />
            <Array as="points">
              <mxPoint x="380" y="120" />
            </Array>
          </mxGeometry>
        </mxCell>
        <mxCell id="2PJzJL51iFRu0PdKuJAb-11" value="Dodanie do ulubionych" style="edgeLabel;html=1;align=center;verticalAlign=middle;resizable=0;points=[];" vertex="1" connectable="0" parent="2PJzJL51iFRu0PdKuJAb-10">
          <mxGeometry x="0.3132" relative="1" as="geometry">
            <mxPoint x="-29" y="-10" as="offset" />
          </mxGeometry>
        </mxCell>
        <mxCell id="2PJzJL51iFRu0PdKuJAb-12" value="" style="endArrow=classic;html=1;rounded=0;exitX=0.023;exitY=0.646;exitDx=0;exitDy=0;exitPerimeter=0;entryX=1.004;entryY=0.695;entryDx=0;entryDy=0;entryPerimeter=0;" edge="1" parent="1" source="sMgzf8moK3KFQ7kUe0p--3" target="sMgzf8moK3KFQ7kUe0p--1">
          <mxGeometry width="50" height="50" relative="1" as="geometry">
            <mxPoint x="180" y="150" as="sourcePoint" />
            <mxPoint x="100" y="150" as="targetPoint" />
            <Array as="points">
              <mxPoint x="380" y="170" />
              <mxPoint x="130" y="170" />
            </Array>
          </mxGeometry>
        </mxCell>
        <mxCell id="2PJzJL51iFRu0PdKuJAb-13" value="Wyświetlenie ulubionych" style="edgeLabel;html=1;align=center;verticalAlign=middle;resizable=0;points=[];" vertex="1" connectable="0" parent="2PJzJL51iFRu0PdKuJAb-12">
          <mxGeometry x="-0.3495" y="1" relative="1" as="geometry">
            <mxPoint x="-46" y="-11" as="offset" />
          </mxGeometry>
        </mxCell>
        <mxCell id="2PJzJL51iFRu0PdKuJAb-14" value="" style="endArrow=classic;html=1;rounded=0;exitX=0;exitY=1;exitDx=0;exitDy=0;entryX=0.998;entryY=0.886;entryDx=0;entryDy=0;entryPerimeter=0;" edge="1" parent="1" source="sMgzf8moK3KFQ7kUe0p--3" target="sMgzf8moK3KFQ7kUe0p--1">
          <mxGeometry width="50" height="50" relative="1" as="geometry">
            <mxPoint x="180" y="150" as="sourcePoint" />
            <mxPoint x="230" y="100" as="targetPoint" />
            <Array as="points">
              <mxPoint x="410" y="190" />
              <mxPoint x="120" y="190" />
            </Array>
          </mxGeometry>
        </mxCell>
        <mxCell id="2PJzJL51iFRu0PdKuJAb-15" value="Wyświetlenie rekomendacji" style="edgeLabel;html=1;align=center;verticalAlign=middle;resizable=0;points=[];" vertex="1" connectable="0" parent="2PJzJL51iFRu0PdKuJAb-14">
          <mxGeometry x="-0.111" y="-1" relative="1" as="geometry">
            <mxPoint x="-15" y="-9" as="offset" />
          </mxGeometry>
        </mxCell>
      </root>
    </mxGraphModel>
  </diagram>
</mxfile>
